<svg width="28" height="27" viewBox="0 0 28 27" fill="none" xmlns="http://www.w3.org/2000/svg">
<ellipse cx="10.9014" cy="10" rx="9.5" ry="10" fill="black"/>
<path d="M27.6784 13.5821C27.6784 6.07911 21.7106 0 14.3451 0C6.97946 0 1.01172 6.07911 1.01172 13.5821C1.01172 20.3612 5.88753 25.9802 12.2617 27V17.5084H8.87462V13.5821H12.2617V10.5897C12.2617 7.18594 14.251 5.3058 17.2977 5.3058C18.7569 5.3058 20.2827 5.57087 20.2827 5.57087V8.91164H18.601C16.9451 8.91164 16.4284 9.95878 16.4284 11.0328V13.5821H20.1262L19.5348 17.5084H16.4284V27C22.8026 25.9802 27.6784 20.3612 27.6784 13.5821Z" fill="#E7E7E7"/>
</svg>
