<svg width="27" height="27" viewBox="0 0 27 27" fill="none" xmlns="http://www.w3.org/2000/svg">
<path d="M13.4966 27C20.9505 27 26.9932 20.9574 26.9932 13.5034C26.9932 6.04946 20.9505 0.00683594 13.4966 0.00683594C6.04262 0.00683594 0 6.04946 0 13.5034C0 20.9574 6.04262 27 13.4966 27Z" fill="url(#paint0_linear_875_287)"/>
<path fill-rule="evenodd" clip-rule="evenodd" d="M6.10869 13.361L13.9796 9.97065C17.7278 8.41166 18.5066 8.14087 19.0142 8.13193C19.1259 8.12996 19.3755 8.15763 19.5372 8.28884C19.6738 8.39962 19.7113 8.54933 19.7293 8.65433C19.7473 8.75933 19.7697 8.99868 19.7519 9.18566C19.5488 11.3197 18.6699 16.4988 18.2228 18.889C18.0336 19.9004 17.6613 20.2395 17.3004 20.2727C16.5167 20.3448 15.9215 19.7547 15.1624 19.2571L12.1504 17.2339C10.8178 16.3558 11.6816 15.8732 12.4411 15.0845C12.6398 14.878 16.0931 11.7369 16.1599 11.452C16.168 11.4164 16.176 11.2835 16.0971 11.2134C16.0182 11.1432 15.9017 11.1675 15.8177 11.1863C15.6986 11.2133 13.8009 12.4676 10.1248 14.9491C9.58611 15.319 9.09821 15.4993 8.66111 15.4898C8.1792 15.4794 7.25223 15.2173 6.56312 14.9933C5.71789 14.7186 5.04611 14.5733 5.10463 14.1067C5.13508 13.8637 5.46976 13.6152 6.10867 13.361L6.10869 13.361Z" fill="black"/>
<defs>
<linearGradient id="paint0_linear_875_287" x1="13496.6" y1="0.00683594" x2="13496.6" y2="26792.9" gradientUnits="userSpaceOnUse">
<stop stop-color="white"/>
<stop offset="1" stop-color="#229ED9"/>
</linearGradient>
</defs>
</svg>
