<svg width="27" height="27" viewBox="0 0 27 27" fill="none" xmlns="http://www.w3.org/2000/svg">
<path d="M13.5 27C20.9559 27 27 20.9559 27 13.5C27 6.04416 20.9559 0 13.5 0C6.04416 0 0 6.04416 0 13.5C0 20.9559 6.04416 27 13.5 27Z" fill="#E7E7E7"/>
<path d="M21.769 9.70169C21.1904 9.95822 20.5681 10.1317 19.9155 10.2092C20.5818 9.80998 21.0932 9.17827 21.3346 8.42431C20.7111 8.79419 20.0202 9.06252 19.2854 9.20715C18.6968 8.58026 17.8581 8.18848 16.9295 8.18848C15.1477 8.18848 13.7026 9.63358 13.7026 11.4154C13.7026 11.6683 13.7312 11.9145 13.7866 12.1508C11.1048 12.0163 8.72691 10.7317 7.13525 8.77879C6.85754 9.25528 6.69822 9.80998 6.69822 10.4013C6.69822 11.5205 7.26833 12.5086 8.1337 13.0872C7.605 13.0706 7.10709 12.9254 6.67223 12.6831C6.67199 12.6968 6.67199 12.7105 6.67199 12.724C6.67199 14.2875 7.78476 15.5916 9.26067 15.8878C8.99018 15.962 8.70453 16.0012 8.41069 16.0012C8.20229 16.0012 8.00038 15.9812 7.80353 15.9437C8.21408 17.2254 9.40554 18.1584 10.8179 18.1846C9.71333 19.0502 8.32213 19.566 6.80989 19.566C6.54998 19.566 6.29249 19.5508 6.04053 19.5207C7.46783 20.4366 9.16441 20.9706 10.9866 20.9706C16.922 20.9706 20.1679 16.0537 20.1679 11.7891C20.1679 11.6493 20.1648 11.5099 20.1585 11.3718C20.7895 10.917 21.3365 10.3488 21.769 9.70169Z" fill="black"/>
</svg>
